<?xml version="1.0" encoding="UTF-8" standalone="no"?>
<!-- Created with Inkscape (http://www.inkscape.org/) -->

<svg
   xmlns:dc="http://purl.org/dc/elements/1.1/"
   xmlns:cc="http://creativecommons.org/ns#"
   xmlns:rdf="http://www.w3.org/1999/02/22-rdf-syntax-ns#"
   xmlns:svg="http://www.w3.org/2000/svg"
   xmlns="http://www.w3.org/2000/svg"
   xmlns:sodipodi="http://sodipodi.sourceforge.net/DTD/sodipodi-0.dtd"
   xmlns:inkscape="http://www.inkscape.org/namespaces/inkscape"
   width="165.55357mm"
   height="165.55357mm"
   viewBox="0 0 165.55358 165.55357"
   version="1.1"
   id="svg8"
   inkscape:export-filename="C:\Users\clem9\Documents\Projects\portfolio-photon\images\gmp\favicon-temp2.png"
   inkscape:export-xdpi="95.800003"
   inkscape:export-ydpi="95.800003"
   inkscape:version="0.92.3 (2405546, 2018-03-11)"
   sodipodi:docname="favicon-temp.svg">
  <defs
     id="defs2" />
  <sodipodi:namedview
     id="base"
     pagecolor="#ffffff"
     bordercolor="#666666"
     borderopacity="1.0"
     inkscape:pageopacity="0.0"
     inkscape:pageshadow="2"
     inkscape:zoom="0.35"
     inkscape:cx="-282.2857"
     inkscape:cy="558.85713"
     inkscape:document-units="mm"
     inkscape:current-layer="layer1"
     showgrid="false"
     fit-margin-top="0"
     fit-margin-left="0"
     fit-margin-right="0"
     fit-margin-bottom="0"
     inkscape:window-width="1440"
     inkscape:window-height="837"
     inkscape:window-x="1592"
     inkscape:window-y="-8"
     inkscape:window-maximized="1" />
  <metadata
     id="metadata5">
    <rdf:RDF>
      <cc:Work
         rdf:about="">
        <dc:format>image/svg+xml</dc:format>
        <dc:type
           rdf:resource="http://purl.org/dc/dcmitype/StillImage" />
        <dc:title></dc:title>
      </cc:Work>
    </rdf:RDF>
  </metadata>
  <g
     inkscape:label="Layer 1"
     inkscape:groupmode="layer"
     id="layer1"
     transform="translate(3.1750031,-131.14404)">
    <circle
       style="opacity:0.98000004;fill:#57aed3;fill-opacity:1;stroke:none;stroke-width:0.26458332;stroke-miterlimit:4;stroke-dasharray:none"
       id="path4539"
       cx="79.601784"
       cy="213.92082"
       r="82.776787" />
    <path
       id="path4528"
       d="m 130.86771,169.07688 c -3.01684,-11.29876 -14.61183,-18.00674 -25.91059,-14.9899 -11.298761,3.01684 -18.006744,14.61183 -14.989902,25.91059 2.484458,9.30487 10.791632,15.49406 19.940552,15.70761 0.94552,4.15656 0.87161,7.57207 -0.29332,10.18347 -2.62619,5.95917 -11.073574,9.09101 -20.025383,12.38491 -7.031249,2.5894 -14.304478,5.29818 -19.62906,9.86919 l -9.828623,-36.81043 c 7.611715,-4.82568 11.550868,-14.17518 9.107361,-23.32667 -3.016839,-11.29875 -14.611827,-18.00673 -25.910585,-14.98989 -11.298757,3.01685 -18.006739,14.61183 -14.989898,25.91059 2.443505,9.15148 10.518872,15.29304 19.522976,15.68218 l 13.603088,50.94666 c -7.60489,4.85124 -11.544046,14.20073 -9.100542,23.35221 3.016842,11.29876 14.611832,18.00674 25.910592,14.98991 11.298757,-3.01685 18.00673,-14.61184 14.989893,-25.9106 -2.320646,-8.69135 -9.726159,-14.68312 -18.179926,-15.57522 0.437522,-1.54086 1.325006,-3.03754 2.894249,-4.44241 3.58149,-3.20186 9.617526,-5.41601 16.023355,-7.78366 10.521313,-3.87727 22.433203,-8.29016 27.253013,-19.1619 2.39116,-5.40349 2.67722,-11.61417 0.88709,-18.83144 7.3407,-4.91762 11.12822,-14.1171 8.72566,-23.1152 z m -83.171275,0.29907 c 2.249529,-0.60063 4.58148,0.74845 5.182118,2.99798 0.600641,2.24954 -0.748451,4.58149 -2.997976,5.18213 -2.249528,0.60064 -4.581481,-0.74846 -5.182121,-2.99799 -0.600639,-2.24953 0.748453,-4.58148 2.997979,-5.18212 z m 26.209661,98.16115 c -2.249527,0.60064 -4.581481,-0.74845 -5.182116,-2.99797 -0.600639,-2.24953 0.748452,-4.58148 2.997979,-5.18212 2.249527,-0.60064 4.58148,0.74846 5.182118,2.99798 0.600636,2.24952 -0.748455,4.58147 -2.997981,5.18211 z m 35.419294,-97.08993 c 2.24954,-0.60064 4.58149,0.74845 5.18213,2.99799 0.60064,2.24952 -0.74845,4.58148 -2.99799,5.18211 -2.24952,0.60064 -4.58147,-0.74845 -5.1821,-2.99797 -0.60065,-2.24954 0.74844,-4.58149 2.99796,-5.18213 z"
       inkscape:connector-curvature="0"
       style="fill:#ffffff;stroke-width:0.26458332" />
  </g>
</svg>
